M48
;DRILL file {KiCad 4.0.4-stable} date 12/05/16 12:34:13
;FORMAT={-:-/ absolute / metric / decimal}
FMAT,2
METRIC,TZ
T1C0.300
T2C0.400
T3C0.813
T4C0.900
T5C1.016
%
G90
G05
M71
T1
X151.765Y-58.483
X152.654Y-63.436
X152.971Y-55.626
X153.162Y-65.596
X154.305Y-55.626
X155.067Y-58.801
X159.766Y-63.119
X160.147Y-60.071
X160.338Y-62.23
X161.226Y-60.389
X161.417Y-63.563
X162.179Y-59.436
X165.417Y-66.23
X167.513Y-64.453
X167.64Y-57.594
X171.386Y-61.595
T2
X152.654Y-51.943
X155.094Y-60.806
X155.385Y-55.245
X156.718Y-60.896
X156.909Y-58.737
X159.639Y-60.96
X161.163Y-55.944
X164.973Y-67.627
X166.243Y-58.166
X168.974Y-64.96
T3
X163.576Y-53.594
X168.656Y-53.594
T5
X145.288Y-51.816
X145.288Y-68.072
X147.828Y-51.816
X147.828Y-68.072
T4
X174.55Y-55.175G85X173.65Y-55.175
G05
X174.55Y-64.825G85X173.65Y-64.825
G05
X177.85Y-55.175G85X176.95Y-55.175
G05
X177.85Y-64.825G85X176.95Y-64.825
G05
T0
M30
