G04 #@! TF.FileFunction,Copper,L2,Bot,Signal*
%FSLAX46Y46*%
G04 Gerber Fmt 4.6, Leading zero omitted, Abs format (unit mm)*
G04 Created by KiCad (PCBNEW 4.0.4-stable) date 12/05/16 16:27:05*
%MOMM*%
%LPD*%
G01*
G04 APERTURE LIST*
%ADD10C,0.100000*%
%ADD11R,3.000000X1.200000*%
%ADD12C,1.397000*%
%ADD13O,2.032000X2.032000*%
%ADD14R,2.500000X2.200000*%
%ADD15R,1.200000X0.750000*%
%ADD16R,1.200000X0.900000*%
%ADD17R,1.060000X0.650000*%
%ADD18R,1.800860X0.800100*%
%ADD19C,0.760000*%
%ADD20C,0.660000*%
%ADD21C,0.381000*%
%ADD22C,0.508000*%
%ADD23C,0.254000*%
G04 APERTURE END LIST*
D10*
X179000000Y-63500000D02*
X179000000Y-70000000D01*
X179000000Y-56500000D02*
X179000000Y-50000000D01*
X174000000Y-63500000D02*
X179000000Y-63500000D01*
X174000000Y-56500000D02*
X174000000Y-63500000D01*
X179000000Y-56500000D02*
X174000000Y-56500000D01*
X179000000Y-50000000D02*
X142000000Y-50000000D01*
X179000000Y-70000000D02*
X142000000Y-70000000D01*
X140000000Y-52000000D02*
X140000000Y-68000000D01*
X140000000Y-68000000D02*
G75*
G03X142000000Y-70000000I2000000J0D01*
G01*
X142000000Y-50000000D02*
G75*
G03X140000000Y-52000000I0J-2000000D01*
G01*
D11*
X142240000Y-65024000D03*
X142240000Y-62484000D03*
X142240000Y-59944000D03*
X142240000Y-57404000D03*
X142240000Y-54864000D03*
D12*
X168656000Y-53594000D03*
X163576000Y-53594000D03*
D13*
X147828000Y-68072000D03*
X145288000Y-68072000D03*
X145288000Y-51816000D03*
X147828000Y-51816000D03*
D14*
X174100000Y-64825000D03*
X177400000Y-64825000D03*
X174100000Y-55175000D03*
X177400000Y-55175000D03*
D15*
X169606000Y-63500000D03*
X167706000Y-63500000D03*
X169669500Y-56642000D03*
X167769500Y-56642000D03*
D16*
X165565000Y-56705500D03*
X163365000Y-56705500D03*
X163660000Y-65849500D03*
X161460000Y-65849500D03*
X149850000Y-65000000D03*
X147650000Y-65000000D03*
X149850000Y-62500000D03*
X147650000Y-62500000D03*
X150100000Y-55000000D03*
X147900000Y-55000000D03*
D17*
X170010000Y-59311500D03*
X170010000Y-60261500D03*
X170010000Y-61211500D03*
X167810000Y-61211500D03*
X167810000Y-59311500D03*
D18*
X162074860Y-62926000D03*
X162074860Y-61026000D03*
X165077140Y-61976000D03*
D19*
X155093500Y-60806500D03*
X156908500Y-58737500D03*
X155384500Y-55245000D03*
D20*
X155067000Y-58801000D03*
D19*
X161163000Y-55943500D03*
X159639000Y-60960000D03*
X156718000Y-60896500D03*
X168973500Y-64960500D03*
X152654000Y-51943000D03*
D20*
X171386500Y-61595000D03*
X167513000Y-64452500D03*
X167640000Y-57594500D03*
D19*
X166243000Y-58166000D03*
D20*
X161226500Y-60388500D03*
D19*
X164973000Y-67627500D03*
D20*
X162179000Y-59436000D03*
X151765000Y-58483500D03*
X152971500Y-55626000D03*
X154305000Y-55626000D03*
X153162000Y-65595500D03*
X160337500Y-62230000D03*
X159766000Y-63119000D03*
X152654000Y-63436500D03*
X165417500Y-66230500D03*
X160147000Y-60071000D03*
X161417000Y-63563500D03*
D21*
X155093500Y-60806500D02*
X155130500Y-60769500D01*
D22*
X156908500Y-58737500D02*
X159321500Y-58737500D01*
X159067500Y-58737500D02*
X156908500Y-58737500D01*
X159194500Y-58737500D02*
X159067500Y-58737500D01*
X155067000Y-55562500D02*
X155067000Y-58801000D01*
X155384500Y-55245000D02*
X155067000Y-55562500D01*
X169669500Y-56642000D02*
X169669500Y-54607500D01*
X169669500Y-54607500D02*
X168656000Y-53594000D01*
D21*
X170010000Y-60261500D02*
X169037000Y-60261500D01*
X169669500Y-57724000D02*
X169669500Y-56642000D01*
X168910000Y-58483500D02*
X169669500Y-57724000D01*
X168910000Y-59880500D02*
X168910000Y-58483500D01*
D23*
X168910000Y-60134500D02*
X168910000Y-59880500D01*
X169037000Y-60261500D02*
X168910000Y-60134500D01*
D22*
X161163000Y-56896000D02*
X161163000Y-55943500D01*
X159321500Y-58737500D02*
X161163000Y-56896000D01*
D23*
X159067500Y-58737500D02*
X159321500Y-58737500D01*
X159639000Y-60960000D02*
X159575500Y-60896500D01*
D22*
X159575500Y-60896500D02*
X156718000Y-60896500D01*
D21*
X168910000Y-62103000D02*
X169606000Y-62799000D01*
X169606000Y-62799000D02*
X169606000Y-63500000D01*
X168910000Y-59880500D02*
X168910000Y-62103000D01*
X168973500Y-64960500D02*
X169606000Y-64328000D01*
X169606000Y-64328000D02*
X169606000Y-63500000D01*
D22*
X167259000Y-53594000D02*
X165798500Y-55054500D01*
X165798500Y-55054500D02*
X162052000Y-55054500D01*
X162052000Y-55054500D02*
X161163000Y-55943500D01*
X168656000Y-53594000D02*
X167259000Y-53594000D01*
X152654000Y-51943000D02*
X155384500Y-54673500D01*
X155384500Y-54673500D02*
X155384500Y-55245000D01*
D23*
X171386500Y-61595000D02*
X171386500Y-59626500D01*
X171071500Y-59311500D02*
X170010000Y-59311500D01*
X171386500Y-59626500D02*
X171071500Y-59311500D01*
X171003000Y-61211500D02*
X170010000Y-61211500D01*
X171386500Y-61595000D02*
X171003000Y-61211500D01*
X167513000Y-64452500D02*
X167706000Y-64259500D01*
X167706000Y-63500000D02*
X167706000Y-64259500D01*
X167769500Y-56642000D02*
X165628500Y-56642000D01*
X165628500Y-56642000D02*
X165565000Y-56705500D01*
X165184000Y-57404000D02*
X167449500Y-57404000D01*
X167449500Y-57404000D02*
X167640000Y-57594500D01*
X167769500Y-57465000D02*
X167769500Y-56642000D01*
X167640000Y-57594500D02*
X167769500Y-57465000D01*
D21*
X163660000Y-65849500D02*
X163660000Y-66314500D01*
X163660000Y-66314500D02*
X164973000Y-67627500D01*
D22*
X166243000Y-58166000D02*
X167388500Y-59311500D01*
D23*
X167388500Y-59311500D02*
X167810000Y-59311500D01*
D22*
X161226500Y-60642500D02*
X161226500Y-60388500D01*
D23*
X161610000Y-61026000D02*
X161226500Y-60642500D01*
X162074860Y-61026000D02*
X161610000Y-61026000D01*
X167002500Y-59311500D02*
X167810000Y-59311500D01*
D21*
X166560500Y-59753500D02*
X167002500Y-59311500D01*
X166560500Y-65659000D02*
X166560500Y-59753500D01*
D23*
X166560500Y-65722500D02*
X166560500Y-65659000D01*
X164973000Y-67627500D02*
X163660000Y-66314500D01*
D21*
X166560500Y-66611500D02*
X165544500Y-67627500D01*
X165544500Y-67627500D02*
X164973000Y-67627500D01*
X166560500Y-65659000D02*
X166560500Y-66611500D01*
D23*
X152717500Y-59436000D02*
X162179000Y-59436000D01*
X151765000Y-58483500D02*
X152717500Y-59436000D01*
D21*
X147383500Y-53784500D02*
X145732500Y-53784500D01*
X150685500Y-53784500D02*
X147383500Y-53784500D01*
X152971500Y-55372000D02*
X151384000Y-53784500D01*
X151384000Y-53784500D02*
X150685500Y-53784500D01*
D23*
X152971500Y-55626000D02*
X152971500Y-55372000D01*
D21*
X145288000Y-53340000D02*
X145288000Y-51816000D01*
X145732500Y-53784500D02*
X145288000Y-53340000D01*
X147828000Y-51816000D02*
X150495000Y-51816000D01*
X154305000Y-55626000D02*
X150495000Y-51816000D01*
D22*
X142240000Y-65024000D02*
X147626000Y-65024000D01*
D23*
X147626000Y-65024000D02*
X147650000Y-65000000D01*
D22*
X142240000Y-62484000D02*
X147634000Y-62484000D01*
D23*
X147634000Y-62484000D02*
X147650000Y-62500000D01*
D22*
X147900000Y-55000000D02*
X144789000Y-55000000D01*
X144789000Y-55000000D02*
X144653000Y-54864000D01*
X144653000Y-54864000D02*
X142240000Y-54864000D01*
D21*
X144653000Y-54864000D02*
X142240000Y-54864000D01*
X144789000Y-55000000D02*
X144653000Y-54864000D01*
X161460000Y-65849500D02*
X153416000Y-65849500D01*
X153416000Y-65849500D02*
X153162000Y-65595500D01*
D23*
X153162000Y-65595500D02*
X153416000Y-65849500D01*
X160591500Y-63627000D02*
X160591500Y-64008000D01*
X151916000Y-65000000D02*
X149850000Y-65000000D01*
X152209500Y-64706500D02*
X151916000Y-65000000D01*
X159893000Y-64706500D02*
X152209500Y-64706500D01*
X160591500Y-64008000D02*
X159893000Y-64706500D01*
X160591500Y-62484000D02*
X160591500Y-63627000D01*
X160337500Y-62230000D02*
X160591500Y-62484000D01*
X158750000Y-64135000D02*
X151485000Y-64135000D01*
X151485000Y-64135000D02*
X149850000Y-62500000D01*
X159766000Y-63119000D02*
X158750000Y-64135000D01*
X149939500Y-62500000D02*
X149850000Y-62500000D01*
X151447500Y-62103000D02*
X151447500Y-61849000D01*
D21*
X151447500Y-61849000D02*
X151447500Y-59372500D01*
X151447500Y-59372500D02*
X150100000Y-58025000D01*
X150100000Y-58025000D02*
X150100000Y-55000000D01*
D23*
X151447500Y-62230000D02*
X151447500Y-62103000D01*
X151447500Y-62103000D02*
X151447500Y-61976000D01*
D21*
X150100000Y-58025000D02*
X150100000Y-55000000D01*
X151447500Y-59372500D02*
X150100000Y-58025000D01*
X151447500Y-62230000D02*
X151447500Y-59372500D01*
X152654000Y-63436500D02*
X151447500Y-62230000D01*
D23*
X165290500Y-66103500D02*
X165417500Y-66230500D01*
X163576000Y-63373000D02*
X165290500Y-65087500D01*
X163576000Y-62293500D02*
X163576000Y-63373000D01*
X163258500Y-61976000D02*
X163576000Y-62293500D01*
X161099500Y-61976000D02*
X163258500Y-61976000D01*
X160401000Y-61277500D02*
X161099500Y-61976000D01*
X160401000Y-60325000D02*
X160401000Y-61277500D01*
X160147000Y-60071000D02*
X160401000Y-60325000D01*
X165290500Y-65087500D02*
X165290500Y-66103500D01*
X161417000Y-63563500D02*
X162054500Y-62926000D01*
X162054500Y-62926000D02*
X162074860Y-62926000D01*
D21*
X165077140Y-61976000D02*
X165077140Y-59095640D01*
X163365000Y-57383500D02*
X163365000Y-56705500D01*
X165077140Y-59095640D02*
X163365000Y-57383500D01*
D23*
G36*
X159686506Y-61516331D02*
X159519890Y-61682658D01*
X159372668Y-62037208D01*
X159372493Y-62237462D01*
X159220086Y-62300436D01*
X158948390Y-62571658D01*
X158801168Y-62926208D01*
X158801098Y-63006271D01*
X158434370Y-63373000D01*
X153619055Y-63373000D01*
X153619167Y-63245392D01*
X153472564Y-62890586D01*
X153201342Y-62618890D01*
X152863566Y-62478633D01*
X152273000Y-61888066D01*
X152273000Y-61849000D01*
X152273000Y-60037834D01*
X152425895Y-60139996D01*
X152717500Y-60198000D01*
X159181888Y-60198000D01*
X159181833Y-60262108D01*
X159328436Y-60616914D01*
X159599658Y-60888610D01*
X159639000Y-60904946D01*
X159639000Y-61277500D01*
X159686506Y-61516331D01*
X159686506Y-61516331D01*
G37*
X159686506Y-61516331D02*
X159519890Y-61682658D01*
X159372668Y-62037208D01*
X159372493Y-62237462D01*
X159220086Y-62300436D01*
X158948390Y-62571658D01*
X158801168Y-62926208D01*
X158801098Y-63006271D01*
X158434370Y-63373000D01*
X153619055Y-63373000D01*
X153619167Y-63245392D01*
X153472564Y-62890586D01*
X153201342Y-62618890D01*
X152863566Y-62478633D01*
X152273000Y-61888066D01*
X152273000Y-61849000D01*
X152273000Y-60037834D01*
X152425895Y-60139996D01*
X152717500Y-60198000D01*
X159181888Y-60198000D01*
X159181833Y-60262108D01*
X159328436Y-60616914D01*
X159599658Y-60888610D01*
X159639000Y-60904946D01*
X159639000Y-61277500D01*
X159686506Y-61516331D01*
G36*
X169366253Y-60261129D02*
X169237877Y-60286037D01*
X169081896Y-60388500D01*
X169003750Y-60388500D01*
X168864108Y-60528141D01*
X168845000Y-60499052D01*
X168800673Y-60431573D01*
X168589640Y-60289123D01*
X168453746Y-60261870D01*
X168582123Y-60236963D01*
X168794927Y-60097173D01*
X168845000Y-60022992D01*
X168864038Y-59994788D01*
X169003750Y-60134500D01*
X169083137Y-60134500D01*
X169230360Y-60233877D01*
X169366253Y-60261129D01*
X169366253Y-60261129D01*
G37*
X169366253Y-60261129D02*
X169237877Y-60286037D01*
X169081896Y-60388500D01*
X169003750Y-60388500D01*
X168864108Y-60528141D01*
X168845000Y-60499052D01*
X168800673Y-60431573D01*
X168589640Y-60289123D01*
X168453746Y-60261870D01*
X168582123Y-60236963D01*
X168794927Y-60097173D01*
X168845000Y-60022992D01*
X168864038Y-59994788D01*
X169003750Y-60134500D01*
X169083137Y-60134500D01*
X169230360Y-60233877D01*
X169366253Y-60261129D01*
G36*
X176174463Y-53427560D02*
X176150000Y-53427560D01*
X175907877Y-53474537D01*
X175749345Y-53578675D01*
X175599640Y-53477623D01*
X175350000Y-53427560D01*
X172850000Y-53427560D01*
X172607877Y-53474537D01*
X172395073Y-53614327D01*
X172252623Y-53825360D01*
X172202560Y-54075000D01*
X172202560Y-56275000D01*
X172249537Y-56517123D01*
X172389327Y-56729927D01*
X172600360Y-56872377D01*
X172850000Y-56922440D01*
X173315000Y-56922440D01*
X173315000Y-63077560D01*
X172850000Y-63077560D01*
X172607877Y-63124537D01*
X172395073Y-63264327D01*
X172252623Y-63475360D01*
X172202560Y-63725000D01*
X172202560Y-65925000D01*
X172249537Y-66167123D01*
X172389327Y-66379927D01*
X172600360Y-66522377D01*
X172850000Y-66572440D01*
X175350000Y-66572440D01*
X175592123Y-66525463D01*
X175750654Y-66421324D01*
X175900360Y-66522377D01*
X176150000Y-66572440D01*
X176173475Y-66572440D01*
X176075057Y-66613106D01*
X175614722Y-67072637D01*
X175365284Y-67673352D01*
X175364716Y-68323795D01*
X175613106Y-68924943D01*
X176002481Y-69315000D01*
X170841000Y-69315000D01*
X170841000Y-64001310D01*
X170841000Y-63785750D01*
X170841000Y-63214250D01*
X170841000Y-62998690D01*
X170744327Y-62765301D01*
X170565698Y-62586673D01*
X170332309Y-62490000D01*
X169891750Y-62490000D01*
X169733000Y-62648750D01*
X169733000Y-63373000D01*
X170682250Y-63373000D01*
X170841000Y-63214250D01*
X170841000Y-63785750D01*
X170682250Y-63627000D01*
X169733000Y-63627000D01*
X169733000Y-64351250D01*
X169891750Y-64510000D01*
X170332309Y-64510000D01*
X170565698Y-64413327D01*
X170744327Y-64234699D01*
X170841000Y-64001310D01*
X170841000Y-69315000D01*
X148930746Y-69315000D01*
X148995433Y-69271778D01*
X149353325Y-68736155D01*
X149479000Y-68104345D01*
X149479000Y-68039655D01*
X149353325Y-67407845D01*
X148995433Y-66872222D01*
X148459810Y-66514330D01*
X147828000Y-66388655D01*
X147196190Y-66514330D01*
X146660567Y-66872222D01*
X146558000Y-67025724D01*
X146455433Y-66872222D01*
X145919810Y-66514330D01*
X145288000Y-66388655D01*
X144656190Y-66514330D01*
X144120567Y-66872222D01*
X143762675Y-67407845D01*
X143637000Y-68039655D01*
X143637000Y-68104345D01*
X143762675Y-68736155D01*
X144120567Y-69271778D01*
X144185253Y-69315000D01*
X142996962Y-69315000D01*
X143385278Y-68927363D01*
X143634716Y-68326648D01*
X143635284Y-67676205D01*
X143386894Y-67075057D01*
X142927363Y-66614722D01*
X142326648Y-66365284D01*
X141676205Y-66364716D01*
X141075057Y-66613106D01*
X140685000Y-67002481D01*
X140685000Y-66260410D01*
X140740000Y-66271440D01*
X143740000Y-66271440D01*
X143982123Y-66224463D01*
X144194927Y-66084673D01*
X144310808Y-65913000D01*
X146601286Y-65913000D01*
X146800360Y-66047377D01*
X147050000Y-66097440D01*
X148250000Y-66097440D01*
X148492123Y-66050463D01*
X148704927Y-65910673D01*
X148749613Y-65844471D01*
X148789327Y-65904927D01*
X149000360Y-66047377D01*
X149250000Y-66097440D01*
X150450000Y-66097440D01*
X150692123Y-66050463D01*
X150904927Y-65910673D01*
X151005283Y-65762000D01*
X151916000Y-65762000D01*
X151916000Y-65761999D01*
X152196903Y-65706124D01*
X152196833Y-65786608D01*
X152343436Y-66141414D01*
X152614658Y-66413110D01*
X152969208Y-66560332D01*
X153022593Y-66560378D01*
X153022594Y-66560378D01*
X153100094Y-66612163D01*
X153100095Y-66612163D01*
X153416000Y-66675000D01*
X160347151Y-66675000D01*
X160399327Y-66754427D01*
X160610360Y-66896877D01*
X160860000Y-66946940D01*
X162060000Y-66946940D01*
X162302123Y-66899963D01*
X162514927Y-66760173D01*
X162559613Y-66693971D01*
X162599327Y-66754427D01*
X162810360Y-66896877D01*
X163060000Y-66946940D01*
X163125006Y-66946940D01*
X163957866Y-67779799D01*
X163957824Y-67828510D01*
X164112023Y-68201700D01*
X164397298Y-68487473D01*
X164770218Y-68642323D01*
X165174010Y-68642676D01*
X165547200Y-68488477D01*
X165592254Y-68443501D01*
X165860405Y-68390163D01*
X165860406Y-68390163D01*
X166128217Y-68211217D01*
X167144217Y-67195217D01*
X167323163Y-66927406D01*
X167323163Y-66927405D01*
X167386000Y-66611500D01*
X167386001Y-66611500D01*
X167386000Y-66611494D01*
X167386000Y-65659000D01*
X167386000Y-65417389D01*
X167704108Y-65417667D01*
X168058914Y-65271064D01*
X168330610Y-64999842D01*
X168477832Y-64645292D01*
X168477968Y-64489074D01*
X168548123Y-64475463D01*
X168644879Y-64411904D01*
X168646302Y-64413327D01*
X168879691Y-64510000D01*
X169320250Y-64510000D01*
X169479000Y-64351250D01*
X169479000Y-63627000D01*
X169459000Y-63627000D01*
X169459000Y-63373000D01*
X169479000Y-63373000D01*
X169479000Y-62648750D01*
X169320250Y-62490000D01*
X168879691Y-62490000D01*
X168646302Y-62586673D01*
X168645019Y-62587955D01*
X168555640Y-62527623D01*
X168306000Y-62477560D01*
X167386000Y-62477560D01*
X167386000Y-62183940D01*
X168340000Y-62183940D01*
X168582123Y-62136963D01*
X168794927Y-61997173D01*
X168910566Y-61825859D01*
X169019327Y-61991427D01*
X169230360Y-62133877D01*
X169480000Y-62183940D01*
X170540000Y-62183940D01*
X170599385Y-62172418D01*
X170839158Y-62412610D01*
X171193708Y-62559832D01*
X171577608Y-62560167D01*
X171932414Y-62413564D01*
X172204110Y-62142342D01*
X172351332Y-61787792D01*
X172351667Y-61403892D01*
X172205064Y-61049086D01*
X172148500Y-60992423D01*
X172148500Y-59626500D01*
X172090496Y-59334895D01*
X171925315Y-59087685D01*
X171925315Y-59087684D01*
X171610315Y-58772685D01*
X171363105Y-58607504D01*
X171071500Y-58549500D01*
X171012449Y-58549500D01*
X171000673Y-58531573D01*
X170904500Y-58466654D01*
X170904500Y-57143310D01*
X170904500Y-56927750D01*
X170904500Y-56356250D01*
X170904500Y-56140690D01*
X170807827Y-55907301D01*
X170629198Y-55728673D01*
X170395809Y-55632000D01*
X170001927Y-55632000D01*
X170001927Y-53786520D01*
X169973148Y-53256801D01*
X169825800Y-52901071D01*
X169590188Y-52839417D01*
X169410583Y-53019022D01*
X169410583Y-52659812D01*
X169348929Y-52424200D01*
X168848520Y-52248073D01*
X168318801Y-52276852D01*
X167963071Y-52424200D01*
X167901417Y-52659812D01*
X168656000Y-53414395D01*
X169410583Y-52659812D01*
X169410583Y-53019022D01*
X168835605Y-53594000D01*
X169590188Y-54348583D01*
X169825800Y-54286929D01*
X170001927Y-53786520D01*
X170001927Y-55632000D01*
X169955250Y-55632000D01*
X169796500Y-55790750D01*
X169796500Y-56515000D01*
X170745750Y-56515000D01*
X170904500Y-56356250D01*
X170904500Y-56927750D01*
X170745750Y-56769000D01*
X169796500Y-56769000D01*
X169796500Y-57493250D01*
X169955250Y-57652000D01*
X170395809Y-57652000D01*
X170629198Y-57555327D01*
X170807827Y-57376699D01*
X170904500Y-57143310D01*
X170904500Y-58466654D01*
X170789640Y-58389123D01*
X170540000Y-58339060D01*
X169480000Y-58339060D01*
X169237877Y-58386037D01*
X169025073Y-58525827D01*
X168909433Y-58697140D01*
X168800673Y-58531573D01*
X168589640Y-58389123D01*
X168340000Y-58339060D01*
X168260047Y-58339060D01*
X168457610Y-58141842D01*
X168604832Y-57787292D01*
X168604979Y-57618752D01*
X168611623Y-57617463D01*
X168708379Y-57553904D01*
X168709802Y-57555327D01*
X168943191Y-57652000D01*
X169383750Y-57652000D01*
X169542500Y-57493250D01*
X169542500Y-56769000D01*
X169522500Y-56769000D01*
X169522500Y-56515000D01*
X169542500Y-56515000D01*
X169542500Y-55790750D01*
X169410583Y-55658833D01*
X169410583Y-54528188D01*
X168656000Y-53773605D01*
X168476395Y-53953210D01*
X168476395Y-53594000D01*
X167721812Y-52839417D01*
X167486200Y-52901071D01*
X167310073Y-53401480D01*
X167338852Y-53931199D01*
X167486200Y-54286929D01*
X167721812Y-54348583D01*
X168476395Y-53594000D01*
X168476395Y-53953210D01*
X167901417Y-54528188D01*
X167963071Y-54763800D01*
X168463480Y-54939927D01*
X168993199Y-54911148D01*
X169348929Y-54763800D01*
X169410583Y-54528188D01*
X169410583Y-55658833D01*
X169383750Y-55632000D01*
X168943191Y-55632000D01*
X168709802Y-55728673D01*
X168708519Y-55729955D01*
X168619140Y-55669623D01*
X168369500Y-55619560D01*
X167169500Y-55619560D01*
X166927377Y-55666537D01*
X166714573Y-55806327D01*
X166671433Y-55870235D01*
X166625673Y-55800573D01*
X166414640Y-55658123D01*
X166165000Y-55608060D01*
X164965000Y-55608060D01*
X164909731Y-55618783D01*
X164909731Y-53329914D01*
X164707146Y-52839620D01*
X164332353Y-52464173D01*
X163842413Y-52260732D01*
X163311914Y-52260269D01*
X162821620Y-52462854D01*
X162446173Y-52837647D01*
X162242732Y-53327587D01*
X162242269Y-53858086D01*
X162444854Y-54348380D01*
X162819647Y-54723827D01*
X163309587Y-54927268D01*
X163840086Y-54927731D01*
X164330380Y-54725146D01*
X164705827Y-54350353D01*
X164909268Y-53860413D01*
X164909731Y-53329914D01*
X164909731Y-55618783D01*
X164722877Y-55655037D01*
X164510073Y-55794827D01*
X164465386Y-55861028D01*
X164425673Y-55800573D01*
X164214640Y-55658123D01*
X163965000Y-55608060D01*
X162765000Y-55608060D01*
X162522877Y-55655037D01*
X162310073Y-55794827D01*
X162167623Y-56005860D01*
X162117560Y-56255500D01*
X162117560Y-57155500D01*
X162164537Y-57397623D01*
X162304327Y-57610427D01*
X162515360Y-57752877D01*
X162657051Y-57781291D01*
X162657052Y-57781292D01*
X162781283Y-57967217D01*
X164251640Y-59437573D01*
X164251640Y-60928510D01*
X164176710Y-60928510D01*
X163934587Y-60975487D01*
X163721783Y-61115277D01*
X163622730Y-61262019D01*
X163622730Y-60625950D01*
X163575753Y-60383827D01*
X163435963Y-60171023D01*
X163224930Y-60028573D01*
X162996823Y-59982828D01*
X163143832Y-59628792D01*
X163144167Y-59244892D01*
X162997564Y-58890086D01*
X162726342Y-58618390D01*
X162371792Y-58471168D01*
X161987892Y-58470833D01*
X161633086Y-58617436D01*
X161576423Y-58674000D01*
X153033130Y-58674000D01*
X152730098Y-58370967D01*
X152730167Y-58292392D01*
X152583564Y-57937586D01*
X152312342Y-57665890D01*
X151957792Y-57518668D01*
X151573892Y-57518333D01*
X151219086Y-57664936D01*
X151063091Y-57820658D01*
X150925500Y-57683066D01*
X150925500Y-56053688D01*
X150942123Y-56050463D01*
X151154927Y-55910673D01*
X151297377Y-55699640D01*
X151347440Y-55450000D01*
X151347440Y-54915374D01*
X152006544Y-55574478D01*
X152006333Y-55817108D01*
X152152936Y-56171914D01*
X152424158Y-56443610D01*
X152778708Y-56590832D01*
X153162608Y-56591167D01*
X153517414Y-56444564D01*
X153638222Y-56323966D01*
X153757658Y-56443610D01*
X154112208Y-56590832D01*
X154496108Y-56591167D01*
X154850914Y-56444564D01*
X155122610Y-56173342D01*
X155269832Y-55818792D01*
X155270167Y-55434892D01*
X155123564Y-55080086D01*
X154852342Y-54808390D01*
X154514566Y-54668133D01*
X151078717Y-51232283D01*
X150810906Y-51053337D01*
X150495000Y-50990500D01*
X149245517Y-50990500D01*
X149041389Y-50685000D01*
X176003037Y-50685000D01*
X175614722Y-51072637D01*
X175365284Y-51673352D01*
X175364716Y-52323795D01*
X175613106Y-52924943D01*
X176072637Y-53385278D01*
X176174463Y-53427560D01*
X176174463Y-53427560D01*
G37*
X176174463Y-53427560D02*
X176150000Y-53427560D01*
X175907877Y-53474537D01*
X175749345Y-53578675D01*
X175599640Y-53477623D01*
X175350000Y-53427560D01*
X172850000Y-53427560D01*
X172607877Y-53474537D01*
X172395073Y-53614327D01*
X172252623Y-53825360D01*
X172202560Y-54075000D01*
X172202560Y-56275000D01*
X172249537Y-56517123D01*
X172389327Y-56729927D01*
X172600360Y-56872377D01*
X172850000Y-56922440D01*
X173315000Y-56922440D01*
X173315000Y-63077560D01*
X172850000Y-63077560D01*
X172607877Y-63124537D01*
X172395073Y-63264327D01*
X172252623Y-63475360D01*
X172202560Y-63725000D01*
X172202560Y-65925000D01*
X172249537Y-66167123D01*
X172389327Y-66379927D01*
X172600360Y-66522377D01*
X172850000Y-66572440D01*
X175350000Y-66572440D01*
X175592123Y-66525463D01*
X175750654Y-66421324D01*
X175900360Y-66522377D01*
X176150000Y-66572440D01*
X176173475Y-66572440D01*
X176075057Y-66613106D01*
X175614722Y-67072637D01*
X175365284Y-67673352D01*
X175364716Y-68323795D01*
X175613106Y-68924943D01*
X176002481Y-69315000D01*
X170841000Y-69315000D01*
X170841000Y-64001310D01*
X170841000Y-63785750D01*
X170841000Y-63214250D01*
X170841000Y-62998690D01*
X170744327Y-62765301D01*
X170565698Y-62586673D01*
X170332309Y-62490000D01*
X169891750Y-62490000D01*
X169733000Y-62648750D01*
X169733000Y-63373000D01*
X170682250Y-63373000D01*
X170841000Y-63214250D01*
X170841000Y-63785750D01*
X170682250Y-63627000D01*
X169733000Y-63627000D01*
X169733000Y-64351250D01*
X169891750Y-64510000D01*
X170332309Y-64510000D01*
X170565698Y-64413327D01*
X170744327Y-64234699D01*
X170841000Y-64001310D01*
X170841000Y-69315000D01*
X148930746Y-69315000D01*
X148995433Y-69271778D01*
X149353325Y-68736155D01*
X149479000Y-68104345D01*
X149479000Y-68039655D01*
X149353325Y-67407845D01*
X148995433Y-66872222D01*
X148459810Y-66514330D01*
X147828000Y-66388655D01*
X147196190Y-66514330D01*
X146660567Y-66872222D01*
X146558000Y-67025724D01*
X146455433Y-66872222D01*
X145919810Y-66514330D01*
X145288000Y-66388655D01*
X144656190Y-66514330D01*
X144120567Y-66872222D01*
X143762675Y-67407845D01*
X143637000Y-68039655D01*
X143637000Y-68104345D01*
X143762675Y-68736155D01*
X144120567Y-69271778D01*
X144185253Y-69315000D01*
X142996962Y-69315000D01*
X143385278Y-68927363D01*
X143634716Y-68326648D01*
X143635284Y-67676205D01*
X143386894Y-67075057D01*
X142927363Y-66614722D01*
X142326648Y-66365284D01*
X141676205Y-66364716D01*
X141075057Y-66613106D01*
X140685000Y-67002481D01*
X140685000Y-66260410D01*
X140740000Y-66271440D01*
X143740000Y-66271440D01*
X143982123Y-66224463D01*
X144194927Y-66084673D01*
X144310808Y-65913000D01*
X146601286Y-65913000D01*
X146800360Y-66047377D01*
X147050000Y-66097440D01*
X148250000Y-66097440D01*
X148492123Y-66050463D01*
X148704927Y-65910673D01*
X148749613Y-65844471D01*
X148789327Y-65904927D01*
X149000360Y-66047377D01*
X149250000Y-66097440D01*
X150450000Y-66097440D01*
X150692123Y-66050463D01*
X150904927Y-65910673D01*
X151005283Y-65762000D01*
X151916000Y-65762000D01*
X151916000Y-65761999D01*
X152196903Y-65706124D01*
X152196833Y-65786608D01*
X152343436Y-66141414D01*
X152614658Y-66413110D01*
X152969208Y-66560332D01*
X153022593Y-66560378D01*
X153022594Y-66560378D01*
X153100094Y-66612163D01*
X153100095Y-66612163D01*
X153416000Y-66675000D01*
X160347151Y-66675000D01*
X160399327Y-66754427D01*
X160610360Y-66896877D01*
X160860000Y-66946940D01*
X162060000Y-66946940D01*
X162302123Y-66899963D01*
X162514927Y-66760173D01*
X162559613Y-66693971D01*
X162599327Y-66754427D01*
X162810360Y-66896877D01*
X163060000Y-66946940D01*
X163125006Y-66946940D01*
X163957866Y-67779799D01*
X163957824Y-67828510D01*
X164112023Y-68201700D01*
X164397298Y-68487473D01*
X164770218Y-68642323D01*
X165174010Y-68642676D01*
X165547200Y-68488477D01*
X165592254Y-68443501D01*
X165860405Y-68390163D01*
X165860406Y-68390163D01*
X166128217Y-68211217D01*
X167144217Y-67195217D01*
X167323163Y-66927406D01*
X167323163Y-66927405D01*
X167386000Y-66611500D01*
X167386001Y-66611500D01*
X167386000Y-66611494D01*
X167386000Y-65659000D01*
X167386000Y-65417389D01*
X167704108Y-65417667D01*
X168058914Y-65271064D01*
X168330610Y-64999842D01*
X168477832Y-64645292D01*
X168477968Y-64489074D01*
X168548123Y-64475463D01*
X168644879Y-64411904D01*
X168646302Y-64413327D01*
X168879691Y-64510000D01*
X169320250Y-64510000D01*
X169479000Y-64351250D01*
X169479000Y-63627000D01*
X169459000Y-63627000D01*
X169459000Y-63373000D01*
X169479000Y-63373000D01*
X169479000Y-62648750D01*
X169320250Y-62490000D01*
X168879691Y-62490000D01*
X168646302Y-62586673D01*
X168645019Y-62587955D01*
X168555640Y-62527623D01*
X168306000Y-62477560D01*
X167386000Y-62477560D01*
X167386000Y-62183940D01*
X168340000Y-62183940D01*
X168582123Y-62136963D01*
X168794927Y-61997173D01*
X168910566Y-61825859D01*
X169019327Y-61991427D01*
X169230360Y-62133877D01*
X169480000Y-62183940D01*
X170540000Y-62183940D01*
X170599385Y-62172418D01*
X170839158Y-62412610D01*
X171193708Y-62559832D01*
X171577608Y-62560167D01*
X171932414Y-62413564D01*
X172204110Y-62142342D01*
X172351332Y-61787792D01*
X172351667Y-61403892D01*
X172205064Y-61049086D01*
X172148500Y-60992423D01*
X172148500Y-59626500D01*
X172090496Y-59334895D01*
X171925315Y-59087685D01*
X171925315Y-59087684D01*
X171610315Y-58772685D01*
X171363105Y-58607504D01*
X171071500Y-58549500D01*
X171012449Y-58549500D01*
X171000673Y-58531573D01*
X170904500Y-58466654D01*
X170904500Y-57143310D01*
X170904500Y-56927750D01*
X170904500Y-56356250D01*
X170904500Y-56140690D01*
X170807827Y-55907301D01*
X170629198Y-55728673D01*
X170395809Y-55632000D01*
X170001927Y-55632000D01*
X170001927Y-53786520D01*
X169973148Y-53256801D01*
X169825800Y-52901071D01*
X169590188Y-52839417D01*
X169410583Y-53019022D01*
X169410583Y-52659812D01*
X169348929Y-52424200D01*
X168848520Y-52248073D01*
X168318801Y-52276852D01*
X167963071Y-52424200D01*
X167901417Y-52659812D01*
X168656000Y-53414395D01*
X169410583Y-52659812D01*
X169410583Y-53019022D01*
X168835605Y-53594000D01*
X169590188Y-54348583D01*
X169825800Y-54286929D01*
X170001927Y-53786520D01*
X170001927Y-55632000D01*
X169955250Y-55632000D01*
X169796500Y-55790750D01*
X169796500Y-56515000D01*
X170745750Y-56515000D01*
X170904500Y-56356250D01*
X170904500Y-56927750D01*
X170745750Y-56769000D01*
X169796500Y-56769000D01*
X169796500Y-57493250D01*
X169955250Y-57652000D01*
X170395809Y-57652000D01*
X170629198Y-57555327D01*
X170807827Y-57376699D01*
X170904500Y-57143310D01*
X170904500Y-58466654D01*
X170789640Y-58389123D01*
X170540000Y-58339060D01*
X169480000Y-58339060D01*
X169237877Y-58386037D01*
X169025073Y-58525827D01*
X168909433Y-58697140D01*
X168800673Y-58531573D01*
X168589640Y-58389123D01*
X168340000Y-58339060D01*
X168260047Y-58339060D01*
X168457610Y-58141842D01*
X168604832Y-57787292D01*
X168604979Y-57618752D01*
X168611623Y-57617463D01*
X168708379Y-57553904D01*
X168709802Y-57555327D01*
X168943191Y-57652000D01*
X169383750Y-57652000D01*
X169542500Y-57493250D01*
X169542500Y-56769000D01*
X169522500Y-56769000D01*
X169522500Y-56515000D01*
X169542500Y-56515000D01*
X169542500Y-55790750D01*
X169410583Y-55658833D01*
X169410583Y-54528188D01*
X168656000Y-53773605D01*
X168476395Y-53953210D01*
X168476395Y-53594000D01*
X167721812Y-52839417D01*
X167486200Y-52901071D01*
X167310073Y-53401480D01*
X167338852Y-53931199D01*
X167486200Y-54286929D01*
X167721812Y-54348583D01*
X168476395Y-53594000D01*
X168476395Y-53953210D01*
X167901417Y-54528188D01*
X167963071Y-54763800D01*
X168463480Y-54939927D01*
X168993199Y-54911148D01*
X169348929Y-54763800D01*
X169410583Y-54528188D01*
X169410583Y-55658833D01*
X169383750Y-55632000D01*
X168943191Y-55632000D01*
X168709802Y-55728673D01*
X168708519Y-55729955D01*
X168619140Y-55669623D01*
X168369500Y-55619560D01*
X167169500Y-55619560D01*
X166927377Y-55666537D01*
X166714573Y-55806327D01*
X166671433Y-55870235D01*
X166625673Y-55800573D01*
X166414640Y-55658123D01*
X166165000Y-55608060D01*
X164965000Y-55608060D01*
X164909731Y-55618783D01*
X164909731Y-53329914D01*
X164707146Y-52839620D01*
X164332353Y-52464173D01*
X163842413Y-52260732D01*
X163311914Y-52260269D01*
X162821620Y-52462854D01*
X162446173Y-52837647D01*
X162242732Y-53327587D01*
X162242269Y-53858086D01*
X162444854Y-54348380D01*
X162819647Y-54723827D01*
X163309587Y-54927268D01*
X163840086Y-54927731D01*
X164330380Y-54725146D01*
X164705827Y-54350353D01*
X164909268Y-53860413D01*
X164909731Y-53329914D01*
X164909731Y-55618783D01*
X164722877Y-55655037D01*
X164510073Y-55794827D01*
X164465386Y-55861028D01*
X164425673Y-55800573D01*
X164214640Y-55658123D01*
X163965000Y-55608060D01*
X162765000Y-55608060D01*
X162522877Y-55655037D01*
X162310073Y-55794827D01*
X162167623Y-56005860D01*
X162117560Y-56255500D01*
X162117560Y-57155500D01*
X162164537Y-57397623D01*
X162304327Y-57610427D01*
X162515360Y-57752877D01*
X162657051Y-57781291D01*
X162657052Y-57781292D01*
X162781283Y-57967217D01*
X164251640Y-59437573D01*
X164251640Y-60928510D01*
X164176710Y-60928510D01*
X163934587Y-60975487D01*
X163721783Y-61115277D01*
X163622730Y-61262019D01*
X163622730Y-60625950D01*
X163575753Y-60383827D01*
X163435963Y-60171023D01*
X163224930Y-60028573D01*
X162996823Y-59982828D01*
X163143832Y-59628792D01*
X163144167Y-59244892D01*
X162997564Y-58890086D01*
X162726342Y-58618390D01*
X162371792Y-58471168D01*
X161987892Y-58470833D01*
X161633086Y-58617436D01*
X161576423Y-58674000D01*
X153033130Y-58674000D01*
X152730098Y-58370967D01*
X152730167Y-58292392D01*
X152583564Y-57937586D01*
X152312342Y-57665890D01*
X151957792Y-57518668D01*
X151573892Y-57518333D01*
X151219086Y-57664936D01*
X151063091Y-57820658D01*
X150925500Y-57683066D01*
X150925500Y-56053688D01*
X150942123Y-56050463D01*
X151154927Y-55910673D01*
X151297377Y-55699640D01*
X151347440Y-55450000D01*
X151347440Y-54915374D01*
X152006544Y-55574478D01*
X152006333Y-55817108D01*
X152152936Y-56171914D01*
X152424158Y-56443610D01*
X152778708Y-56590832D01*
X153162608Y-56591167D01*
X153517414Y-56444564D01*
X153638222Y-56323966D01*
X153757658Y-56443610D01*
X154112208Y-56590832D01*
X154496108Y-56591167D01*
X154850914Y-56444564D01*
X155122610Y-56173342D01*
X155269832Y-55818792D01*
X155270167Y-55434892D01*
X155123564Y-55080086D01*
X154852342Y-54808390D01*
X154514566Y-54668133D01*
X151078717Y-51232283D01*
X150810906Y-51053337D01*
X150495000Y-50990500D01*
X149245517Y-50990500D01*
X149041389Y-50685000D01*
X176003037Y-50685000D01*
X175614722Y-51072637D01*
X175365284Y-51673352D01*
X175364716Y-52323795D01*
X175613106Y-52924943D01*
X176072637Y-53385278D01*
X176174463Y-53427560D01*
M02*
