G04 #@! TF.FileFunction,Soldermask,Bot*
%FSLAX46Y46*%
G04 Gerber Fmt 4.6, Leading zero omitted, Abs format (unit mm)*
G04 Created by KiCad (PCBNEW 4.0.4-stable) date 12/05/16 12:34:11*
%MOMM*%
%LPD*%
G01*
G04 APERTURE LIST*
%ADD10C,0.100000*%
%ADD11C,1.397000*%
%ADD12C,2.000000*%
%ADD13O,2.032000X2.032000*%
%ADD14R,2.500000X2.200000*%
%ADD15R,1.200000X0.750000*%
%ADD16R,1.200000X0.900000*%
%ADD17R,1.060000X0.650000*%
%ADD18R,1.800860X0.800100*%
G04 APERTURE END LIST*
D10*
X179000000Y-63500000D02*
X179000000Y-70000000D01*
X179000000Y-56500000D02*
X179000000Y-50000000D01*
X174000000Y-63500000D02*
X179000000Y-63500000D01*
X174000000Y-56500000D02*
X174000000Y-63500000D01*
X179000000Y-56500000D02*
X174000000Y-56500000D01*
X179000000Y-50000000D02*
X142000000Y-50000000D01*
X179000000Y-70000000D02*
X142000000Y-70000000D01*
X140000000Y-52000000D02*
X140000000Y-68000000D01*
X140000000Y-68000000D02*
G75*
G03X142000000Y-70000000I2000000J0D01*
G01*
X142000000Y-50000000D02*
G75*
G03X140000000Y-52000000I0J-2000000D01*
G01*
D11*
X168656000Y-53594000D03*
X163576000Y-53594000D03*
D12*
X142000000Y-52000000D03*
X142000000Y-68000000D03*
X177000000Y-68000000D03*
X177000000Y-52000000D03*
D13*
X147828000Y-68072000D03*
X145288000Y-68072000D03*
X145288000Y-51816000D03*
X147828000Y-51816000D03*
D14*
X174100000Y-64825000D03*
X177400000Y-64825000D03*
X174100000Y-55175000D03*
X177400000Y-55175000D03*
D15*
X169606000Y-63500000D03*
X167706000Y-63500000D03*
X169669500Y-56642000D03*
X167769500Y-56642000D03*
D16*
X165565000Y-56705500D03*
X163365000Y-56705500D03*
X163660000Y-65849500D03*
X161460000Y-65849500D03*
X149850000Y-65000000D03*
X147650000Y-65000000D03*
X149850000Y-62500000D03*
X147650000Y-62500000D03*
X150100000Y-55000000D03*
X147900000Y-55000000D03*
D17*
X170010000Y-59311500D03*
X170010000Y-60261500D03*
X170010000Y-61211500D03*
X167810000Y-61211500D03*
X167810000Y-59311500D03*
D18*
X162074860Y-62926000D03*
X162074860Y-61026000D03*
X165077140Y-61976000D03*
M02*
