G04 #@! TF.FileFunction,Soldermask,Top*
%FSLAX46Y46*%
G04 Gerber Fmt 4.6, Leading zero omitted, Abs format (unit mm)*
G04 Created by KiCad (PCBNEW 4.0.4-stable) date 12/05/16 16:27:05*
%MOMM*%
%LPD*%
G01*
G04 APERTURE LIST*
%ADD10C,0.100000*%
%ADD11R,3.000000X1.200000*%
%ADD12C,1.397000*%
%ADD13C,2.000000*%
%ADD14R,0.900000X0.250000*%
%ADD15R,0.250000X0.900000*%
%ADD16R,1.725000X1.725000*%
%ADD17O,2.032000X2.032000*%
%ADD18R,1.500000X0.400000*%
%ADD19R,2.500000X2.200000*%
%ADD20R,1.200000X0.750000*%
%ADD21R,0.750000X1.200000*%
%ADD22R,0.797560X0.797560*%
%ADD23R,1.200000X0.900000*%
%ADD24R,1.400000X1.200000*%
G04 APERTURE END LIST*
D10*
X179000000Y-63500000D02*
X179000000Y-70000000D01*
X179000000Y-56500000D02*
X179000000Y-50000000D01*
X174000000Y-63500000D02*
X179000000Y-63500000D01*
X174000000Y-56500000D02*
X174000000Y-63500000D01*
X179000000Y-56500000D02*
X174000000Y-56500000D01*
X179000000Y-50000000D02*
X142000000Y-50000000D01*
X179000000Y-70000000D02*
X142000000Y-70000000D01*
X140000000Y-52000000D02*
X140000000Y-68000000D01*
X140000000Y-68000000D02*
G75*
G03X142000000Y-70000000I2000000J0D01*
G01*
X142000000Y-50000000D02*
G75*
G03X140000000Y-52000000I0J-2000000D01*
G01*
D11*
X142240000Y-65024000D03*
X142240000Y-62484000D03*
X142240000Y-59944000D03*
X142240000Y-57404000D03*
X142240000Y-54864000D03*
D12*
X168656000Y-53594000D03*
X163576000Y-53594000D03*
D13*
X142000000Y-52000000D03*
X142000000Y-68000000D03*
X177000000Y-68000000D03*
X177000000Y-52000000D03*
D14*
X153456000Y-58194000D03*
X153456000Y-58694000D03*
X153456000Y-59194000D03*
X153456000Y-59694000D03*
X153456000Y-60194000D03*
X153456000Y-60694000D03*
X153456000Y-61194000D03*
X153456000Y-61694000D03*
D15*
X154206000Y-62444000D03*
X154706000Y-62444000D03*
X155206000Y-62444000D03*
X155706000Y-62444000D03*
X156206000Y-62444000D03*
X156706000Y-62444000D03*
X157206000Y-62444000D03*
X157706000Y-62444000D03*
D14*
X158456000Y-61694000D03*
X158456000Y-61194000D03*
X158456000Y-60694000D03*
X158456000Y-60194000D03*
X158456000Y-59694000D03*
X158456000Y-59194000D03*
X158456000Y-58694000D03*
X158456000Y-58194000D03*
D15*
X157706000Y-57444000D03*
X157206000Y-57444000D03*
X156706000Y-57444000D03*
X156206000Y-57444000D03*
X155706000Y-57444000D03*
X155206000Y-57444000D03*
X154706000Y-57444000D03*
X154206000Y-57444000D03*
D16*
X156818500Y-60806500D03*
X156818500Y-59081500D03*
X155093500Y-60806500D03*
X155093500Y-59081500D03*
D17*
X147828000Y-68072000D03*
X145288000Y-68072000D03*
X145288000Y-51816000D03*
X147828000Y-51816000D03*
D18*
X173400000Y-61300000D03*
X173400000Y-60650000D03*
X173400000Y-60000000D03*
X173400000Y-59350000D03*
X173400000Y-58700000D03*
D19*
X174100000Y-64825000D03*
X177400000Y-64825000D03*
X174100000Y-55175000D03*
X177400000Y-55175000D03*
D20*
X168214000Y-63500000D03*
X170114000Y-63500000D03*
D21*
X165036500Y-63307000D03*
X165036500Y-61407000D03*
X163131500Y-63307000D03*
X163131500Y-61407000D03*
D20*
X149540000Y-56134000D03*
X147640000Y-56134000D03*
X147640000Y-62992000D03*
X149540000Y-62992000D03*
D21*
X161163000Y-57089000D03*
X161163000Y-58989000D03*
D20*
X154498000Y-54102000D03*
X156398000Y-54102000D03*
D22*
X155460700Y-67818000D03*
X156959300Y-67818000D03*
X161556700Y-67818000D03*
X163055300Y-67818000D03*
X168160700Y-67818000D03*
X169659300Y-67818000D03*
D23*
X167810000Y-61468000D03*
X170010000Y-61468000D03*
X167810000Y-59436000D03*
X170010000Y-59436000D03*
X163238000Y-59436000D03*
X165438000Y-59436000D03*
X157310000Y-66294000D03*
X155110000Y-66294000D03*
X163406000Y-66294000D03*
X161206000Y-66294000D03*
X170010000Y-66294000D03*
X167810000Y-66294000D03*
D24*
X147540000Y-58890000D03*
X149640000Y-58890000D03*
X147540000Y-60490000D03*
X149640000Y-60490000D03*
M02*
